<?xml version="1.0" encoding="UTF-8"?>
<svg version="1.1" xmlns="http://www.w3.org/2000/svg" width="2000" height="2000">
<path d="M0 0 C0.90284225 -0.00058914 1.80568451 -0.00117828 2.73588562 -0.00178528 C32.42488014 -0.0154227 61.91169856 0.59359958 91.5 3.25 C93.17643009 3.39602132 94.85286237 3.54201765 96.52929688 3.68798828 C187.1701909 11.71861815 277.07703138 32.9009946 406.5 84.25 C407.82012563 84.84250164 409.14027691 85.43494612 410.46044922 86.02734375 C436.87481158 97.89614367 462.80611293 110.3105633 487.91894531 124.77587891 C491.00212927 126.53678174 494.11133037 128.24609036 497.22680664 129.94897461 C514.15380968 139.21563828 530.6050923 149.31804452 546.875 159.6875 C548.37945679 160.64390381 548.37945679 160.64390381 549.91430664 161.61962891 C555.70871662 165.34118277 561.32419769 169.24084192 566.86962891 173.32348633 C570.86213061 176.24763993 574.93364926 179.05500364 579 181.875 C597.74976002 194.94941607 615.85958468 208.71952457 633.5 223.25 C635.29157706 224.70844341 637.08324502 226.16677517 638.875 227.625 C648.12485808 235.2014507 657.21842574 242.90572751 666.02734375 250.9921875 C668.11867939 252.90181151 670.23258864 254.77331252 672.375 256.625 C680.491547 263.68940202 688.43605324 270.98731275 695.9140625 278.7265625 C697.62841093 280.46298587 697.62841093 280.46298587 700.5 282.25 C700.5 282.91 700.5 283.57 700.5 284.25 C701.36371216 284.62584229 701.36371216 284.62584229 702.24487305 285.00927734 C704.80638593 286.41856699 706.5218495 288.02908763 708.58203125 290.1015625 C709.34966797 290.87113281 710.11730469 291.64070313 710.90820312 292.43359375 C712.09833008 293.64208984 712.09833008 293.64208984 713.3125 294.875 C714.09431641 295.65746094 714.87613281 296.43992187 715.68164062 297.24609375 C719.93399398 301.53041968 724.03382435 305.89349443 727.94995117 310.48779297 C729.56358772 312.32229109 731.2559351 314.03971101 733 315.75 C735.97057406 318.67467115 738.70729119 321.73619561 741.42578125 324.89453125 C743.51416335 327.26608381 745.65488498 329.57849722 747.81152344 331.88769531 C752.78651508 337.2169337 757.54161483 342.63769814 762.10546875 348.328125 C764.38119528 351.10503111 766.72306689 353.80348567 769.09619141 356.49658203 C774.91120647 363.10135409 780.39086565 369.87930705 785.68774414 376.90600586 C789.26911471 381.65647248 792.94028235 386.31705649 796.6875 390.9375 C801.77723506 397.24233713 806.51249047 403.74064622 811.16650391 410.37060547 C812.57541844 412.35629278 814.00879712 414.32221504 815.44921875 416.28515625 C824.53202164 428.67891068 833.05662366 441.41435082 841.5 454.25 C842.50128419 455.7617306 843.50258456 457.27345049 844.50390625 458.78515625 C851.27083891 469.06015196 857.55547392 479.60271846 863.74365234 490.234375 C865.56890054 493.36830129 867.4037102 496.49652374 869.23828125 499.625 C876.92434547 512.78481623 884.21036645 526.0885767 891.15625 539.65234375 C892.39269953 542.04257322 893.65594107 544.41497288 894.9375 546.78125 C929.33006623 610.3873332 954.19452232 680.29256239 971.98620605 750.23522949 C972.47097214 752.13617135 972.9623282 754.03542917 973.45410156 755.93457031 C986.28414062 805.6771483 994.70359479 856.76402278 999.28710938 907.91625977 C999.49933793 910.24274232 999.72494326 912.56761098 999.953125 914.89257812 C1002.6216406 942.58153362 1002.79036475 970.28662737 1002.81007385 998.07873154 C1002.81246091 1000.95293609 1002.81777772 1003.82712458 1002.82336426 1006.70132446 C1002.85739818 1030.62166564 1002.29326015 1054.39395811 1000.5 1078.25 C1000.42683563 1079.23828796 1000.35367126 1080.22657593 1000.27828979 1081.24481201 C999.85921482 1086.77484901 999.36584156 1092.29437296 998.8125 1097.8125 C998.73140991 1098.63332062 998.65031982 1099.45414124 998.56677246 1100.29983521 C993.57336317 1150.26156478 984.73275207 1199.57180379 972.5 1248.25 C972.33262329 1248.91972839 972.16524658 1249.58945679 971.99279785 1250.27947998 C956.84358297 1310.84061908 935.05083022 1369.80013463 908.5 1426.25 C907.98099121 1427.35649902 907.46198242 1428.46299805 906.92724609 1429.60302734 C893.76956187 1457.54983857 879.39783616 1484.74687194 863.37158203 1511.15820312 C861.59591242 1514.09155558 859.84010648 1517.03581232 858.08984375 1519.984375 C844.93242326 1542.03397234 830.59272547 1563.47807893 815.5 1584.25 C814.94650879 1585.013125 814.39301758 1585.77625 813.82275391 1586.5625 C806.67917439 1596.38910484 799.39224022 1606.07884644 791.82226562 1615.58056641 C790.46929804 1617.28876293 789.13128067 1619.00774144 787.796875 1620.73046875 C782.64307096 1627.37298563 777.34789882 1633.85202296 771.84228516 1640.20654297 C768.80659466 1643.71184304 765.84551476 1647.26201197 762.9375 1650.875 C758.83114026 1655.93528722 754.47199675 1660.71680269 750.04296875 1665.4921875 C748.05011761 1667.65340548 746.10292215 1669.83346969 744.1875 1672.0625 C732.9946535 1684.92155037 720.94031442 1696.99611419 708.89111328 1709.04418945 C706.20709276 1711.73044293 703.53123502 1714.4246678 700.85546875 1717.11914062 C699.14892452 1718.82861133 697.44191146 1720.53761416 695.734375 1722.24609375 C694.93553894 1723.05211533 694.13670288 1723.8581369 693.31365967 1724.68858337 C692.57818909 1725.42097733 691.84271851 1726.15337128 691.08496094 1726.90795898 C690.43879822 1727.55554672 689.7926355 1728.20313446 689.12689209 1728.87034607 C687.5 1730.25 687.5 1730.25 685.5 1730.25 C685.5 1730.91 685.5 1731.57 685.5 1732.25 C684.2421875 1733.51953125 684.2421875 1733.51953125 682.375 1735.0625 C678.3600639 1738.46631308 674.51983847 1742.01977462 670.6875 1745.625 C665.64026893 1750.35131276 660.46671352 1754.8250474 655.06640625 1759.1484375 C652.52440637 1761.23001427 650.10470665 1763.4003838 647.6875 1765.625 C643.31299174 1769.60683587 638.75470925 1773.26742083 634.08349609 1776.88891602 C630.26676332 1779.85052544 626.50768748 1782.86971958 622.7800293 1785.94262695 C608.64117251 1797.58319213 593.73642317 1808.19123792 578.73486328 1818.68310547 C576.34841965 1820.35627515 573.96883635 1822.03891134 571.58984375 1823.72265625 C561.0547682 1831.16401792 550.41326994 1838.37497368 539.5 1845.25 C538.71077148 1845.74822266 537.92154297 1846.24644531 537.10839844 1846.75976562 C455.07078017 1898.40712546 366.27580896 1938.34084444 8.59667969 2000.51074219 C4.04401772 2000.49936587 -0.50840981 2000.50612972 -5.06106377 2000.51762009 C-35.33142015 2000.58235653 -65.49579951 1999.57429353 -95.625 1996.5 C-96.86366318 1996.37644638 -96.86366318 1996.37644638 -98.12734985 1996.25039673 C-131.176684 1992.92965395 -163.92394221 1987.69002075 -196.5 1981.25 C-197.20411011 1981.1116272 -197.90822021 1980.97325439 -198.63366699 1980.83068848 C-269.81838151 1966.81971561 -338.91845874 1944.03649759 -405.21484375 1914.703125 C-408.21259858 1913.37712643 -411.21497595 1912.0622871 -414.21875 1910.75 C-423.50548073 1906.66495077 -432.5214577 1902.24651392 -441.4453125 1897.421875 C-445.2982691 1895.34226872 -449.19988057 1893.37661277 -453.125 1891.4375 C-503.50873527 1866.39055807 -551.75212904 1836.39384695 -596.5 1802.25 C-597.84113444 1801.23045377 -599.1822811 1800.2109236 -600.5234375 1799.19140625 C-613.52767466 1789.29078805 -626.42909459 1779.32208029 -638.83496094 1768.67675781 C-640.56562325 1767.19376799 -642.30186994 1765.71752034 -644.0390625 1764.2421875 C-650.48199844 1758.75999412 -656.82322524 1753.19458603 -663.05859375 1747.4765625 C-665.16154833 1745.55866793 -667.28669156 1743.67623955 -669.4375 1741.8125 C-677.16850317 1735.08160607 -684.7525039 1728.18020564 -691.87890625 1720.80859375 C-693.62133258 1719.04141718 -693.62133258 1719.04141718 -696.5 1717.25 C-696.5 1716.59 -696.5 1715.93 -696.5 1715.25 C-697.07234375 1715.0025 -697.6446875 1714.755 -698.234375 1714.5 C-700.85010611 1713.05683801 -702.64773456 1711.36783778 -704.75 1709.25 C-705.45640625 1708.54875 -706.1628125 1707.8475 -706.890625 1707.125 C-708.5 1705.25 -708.5 1705.25 -708.5 1703.25 C-709.16 1703.25 -709.82 1703.25 -710.5 1703.25 C-711.69921875 1702.02734375 -711.69921875 1702.02734375 -713.1875 1700.1875 C-716.9009445 1695.8017266 -720.91616504 1691.7855144 -725 1687.75 C-729.4369444 1683.35225881 -733.80625386 1678.96775438 -737.83984375 1674.19140625 C-739.95702462 1671.71555003 -742.16781829 1669.33338732 -744.375 1666.9375 C-748.52245258 1662.39475315 -752.43232695 1657.70880038 -756.29296875 1652.921875 C-758.41623338 1650.3514095 -760.61811849 1647.89080637 -762.875 1645.4375 C-766.85683587 1641.06299174 -770.51742083 1636.50470925 -774.13891602 1631.83349609 C-777.10052544 1628.01676332 -780.11971958 1624.25768748 -783.19262695 1620.5300293 C-794.87067559 1606.34564437 -805.49345718 1591.38584664 -816.02783203 1576.34277344 C-817.51815645 1574.22418953 -819.0208252 1572.11490591 -820.52734375 1570.0078125 C-840.58575131 1541.91121011 -858.59224501 1512.14588856 -875.09228516 1481.83447266 C-876.09632561 1479.99111986 -877.10423803 1478.14987386 -878.11474609 1476.31005859 C-917.63751587 1404.25999386 -947.71269219 1327.17009266 -993.75 1098.1875 C-993.86569839 1097.04346207 -993.86569839 1097.04346207 -993.98373413 1095.87631226 C-994.56903492 1090.00664076 -995.05650024 1084.13200504 -995.5 1078.25 C-995.58720306 1077.10071014 -995.67440613 1075.95142029 -995.76425171 1074.76730347 C-997.50778717 1050.96046092 -997.86440604 1027.20990285 -997.81805801 1003.34526062 C-997.81241194 1000.39142808 -997.8095952 997.43760128 -997.80697632 994.48376465 C-997.77176938 967.16722866 -997.54311602 939.96728513 -994.75646973 912.7677002 C-994.48334578 910.08650962 -994.22290204 907.40426645 -993.96386719 904.72167969 C-987.02585755 833.56537703 -973.10268745 763.4084407 -951.16741943 695.3258667 C-950.50504579 693.26569386 -949.84871999 691.20368153 -949.19384766 689.14111328 C-926.40112242 617.52152697 -894.56751054 548.43532647 -855.5 484.25 C-854.43749725 482.48698082 -853.3749971 480.72396008 -852.3125 478.9609375 C-835.21932814 450.80331713 -816.49871584 423.41634533 -796.5 397.25 C-796.0673584 396.6823291 -795.6347168 396.1146582 -795.18896484 395.52978516 C-792.7250215 392.29911338 -790.24738972 389.07944965 -787.75634766 385.86962891 C-786.90044163 384.76623198 -786.04600745 383.66169214 -785.19287109 382.55615234 C-779.59271528 375.30396079 -773.84427934 368.22199351 -767.84472656 361.29589844 C-764.78956509 357.76765405 -761.80613155 354.19545177 -758.875 350.5625 C-755.01955442 345.81303805 -750.96100563 341.28673547 -746.8203125 336.78515625 C-744.92718797 334.71674242 -743.07748296 332.62594124 -741.25 330.5 C-736.13604809 324.621345 -730.75468649 318.98329587 -725.42333984 313.30273438 C-723.49275299 311.24226544 -721.56797856 309.17650855 -719.64453125 307.109375 C-701.21605925 287.32762428 -701.21605925 287.32762428 -691.59375 279.125 C-688.96013025 276.76653455 -686.48196115 274.2653356 -684 271.75 C-680.38316805 268.08963609 -676.69758133 264.58851196 -672.78125 261.25 C-670.30720075 259.08097052 -667.910948 256.84144492 -665.51293945 254.58911133 C-659.94239574 249.35829852 -654.30008068 244.33046359 -648.33203125 239.55078125 C-645.05798614 236.89090184 -641.87488913 234.13743315 -638.6875 231.375 C-632.41327122 225.96232496 -625.97072725 220.8071537 -619.41748047 215.73779297 C-617.36710005 214.14688155 -615.32563094 212.54499999 -613.28515625 210.94140625 C-590.47832009 193.04855544 -566.96918654 176.09859054 -542.50634766 160.53564453 C-540.47712187 159.23533996 -538.46171307 157.91587592 -536.44921875 156.58984375 C-525.90942962 149.65926287 -515.13495442 143.17753298 -504.23046875 136.83789062 C-502.49166535 135.82669809 -500.75450026 134.81267929 -499.01953125 133.79492188 C-452.73494569 106.65086232 -404.22957837 83.91633564 -354.1796875 64.66943359 C-350.95723155 63.42637634 -347.74317866 62.16445304 -344.53125 60.89453125 C-288.71739878 39.08458763 -229.40446974 24.66907661 -170.5 14.25 C-168.4114344 13.86992315 -166.32289011 13.48972917 -164.234375 13.109375 C-138.06832338 8.44834339 -111.57227784 5.50974894 -85.125 3 C-84.27022064 2.91709717 -83.41544128 2.83419434 -82.53475952 2.7487793 C-55.07140187 0.10995252 -27.56416361 0.00826287 0 0 Z " fill="#210080" transform="translate(997.5,-0.25)"/>
<path d="M0 0 C1.80064892 0.22113232 3.60143624 0.44113988 5.40234375 0.66015625 C18.03925315 2.24474248 30.53193315 4.41122617 43 7 C43.68739258 7.13986328 44.37478516 7.27972656 45.08300781 7.42382812 C125.24840314 23.99321088 201.67685122 66.74289274 264.30322266 118.60302734 C266.5747832 120.47322439 268.87945346 122.30011941 271.1875 124.125 C276.65194024 128.48560506 281.97545238 133.00902711 287.29248047 137.546875 C288.98281411 138.98537455 290.68011492 140.41525437 292.37890625 141.84375 C300.75082848 148.91268191 308.76200985 156.31550432 316.7109375 163.85449219 C318.93538444 165.93943669 321.18314087 167.99738467 323.43440247 170.05328369 C330.80779411 176.80132789 337.931169 183.77693811 344.98632812 190.85595703 C346.89078505 192.76582994 348.80060819 194.67022149 350.7109375 196.57421875 C356.11726434 201.9775609 361.48364827 207.36148828 366.43798828 213.18847656 C369.50001307 216.73962129 372.76966796 220.10258182 376 223.5 C381.12953892 228.8948599 386.14151919 234.35934441 391 240 C391.49306641 240.57089355 391.98613281 241.14178711 392.49414062 241.72998047 C393.91591898 243.3798074 395.33379942 245.03288344 396.75 246.6875 C397.26022705 247.28344971 397.7704541 247.87939941 398.29614258 248.4934082 C405.84698592 257.32077851 413.35809666 266.17150358 420.68359375 275.1875 C422.3458355 277.20573618 424.02063029 279.20349216 425.72265625 281.1875 C430.05283564 286.2358883 434.27215949 291.25675662 438.125 296.6875 C442.03579594 302.17689309 446.42150251 307.06415637 451 312 C452.26650391 313.42119141 452.26650391 313.42119141 453.55859375 314.87109375 C483.84197485 348.82518771 527.11236968 373.34040957 573 377 C585.40582241 377.62234506 597.81917697 377.63045994 610 375 C611.40476502 374.72821959 612.80972818 374.45746216 614.21484375 374.1875 C642.33693719 368.58241959 670.68941304 354.53515616 689.2265625 332.09765625 C691 330 691 330 692.9609375 328.12109375 C697.82771406 323.04574106 698.43455624 319.06587362 698.5 312.3125 C698.62722432 300.11282117 703.3136302 290.75369742 711.8125 281.83984375 C718.61069301 276.12207784 726.22602195 273.44292203 735 274 C738.07482306 278.6122346 737.32863702 283.26223518 737.3125 288.6875 C737.32861328 289.75162109 737.34472656 290.81574219 737.36132812 291.91210938 C737.36776236 302.32913686 735.00734796 308.84774874 727.80859375 316.54296875 C723.6535451 320.17791395 719.13267787 322.60426167 714.234375 325.11328125 C708.42572553 328.50166011 705.12034834 333.03540522 701.6875 338.6875 C697.84821428 344.81817911 693.71024249 350.49712482 689 356 C688.30261719 356.81984375 687.60523438 357.6396875 686.88671875 358.484375 C668.63111379 379.36645244 645.50448201 393.29026749 619 401 C617.14761719 401.56847656 617.14761719 401.56847656 615.2578125 402.1484375 C586.54697491 410.22146371 546.18574126 412.79292323 517 405 C517.5559082 405.87845581 517.5559082 405.87845581 518.12304688 406.7746582 C537.23556431 437.03127049 555.39167455 467.79389557 571.7265625 499.64453125 C574.06101449 504.19556762 576.4442988 508.71526255 578.87109375 513.2175293 C596.43840058 545.95103771 610.75805193 580.95882755 623 616 C623.2371875 616.67869141 623.474375 617.35738281 623.71875 618.05664062 C630.4211303 637.27823386 636.56619491 656.48391884 641.34326172 676.28662109 C641.91038654 678.62975315 642.49592999 680.96635305 643.09765625 683.30078125 C652.10474057 718.41747032 658.50329412 753.78587571 661 790 C661.08830078 791.26521484 661.17660156 792.53042969 661.26757812 793.83398438 C662.00918835 805.23610892 662.15499573 816.61073102 662.13037109 828.03466797 C662.12495569 831.02446441 662.13038341 834.014114 662.13671875 837.00390625 C662.13605868 838.94010449 662.134779 840.87630264 662.1328125 842.8125 C662.13584885 844.12686035 662.13584885 844.12686035 662.13894653 845.46777344 C662.11662923 851.42970168 661.59914312 857.00856882 661 863 C622.39 863 583.78 863 544 863 C548.48818366 858.51181634 548.48818366 858.51181634 551.50390625 856.73828125 C552.15665527 856.34632568 552.8094043 855.95437012 553.48193359 855.55053711 C554.16852051 855.14198486 554.85510742 854.73343262 555.5625 854.3125 C562.53745586 850.05353295 568.84712613 845.39692203 575 840 C575.83917969 839.29359375 576.67835937 838.5871875 577.54296875 837.859375 C588.49850717 828.41553103 596.27509635 818.24168695 602 805 C602.43441406 804.0821875 602.86882812 803.164375 603.31640625 802.21875 C607.70416742 791.57804695 608.81357885 778.51718699 604.75195312 767.66552734 C601.08873956 759.7017735 596.62814746 752.21817713 592.06079102 744.74902344 C590.34279251 741.91640173 588.68258635 739.05036099 587.015625 736.1875 C580.74515304 725.48983193 574.24159347 714.95852747 567.20361328 704.74804688 C565.92780162 702.89514393 564.66452115 701.03408864 563.40234375 699.171875 C553.1251762 684.05609176 542.47512494 669.23166904 531 655 C530.24203125 654.05898437 529.4840625 653.11796875 528.703125 652.1484375 C520.71870626 642.32363856 512.57284501 632.64037939 504.0546875 623.2734375 C502.13063862 621.14454691 500.24854188 618.98580858 498.375 616.8125 C495.65817883 613.68878165 492.79653048 610.77114574 489.84155273 607.87402344 C488.06842084 606.06962726 486.42013816 604.20819351 484.77734375 602.28515625 C481.04224835 597.99093258 477.09731448 593.94896936 473.0625 589.9375 C472.39798828 589.26912109 471.73347656 588.60074219 471.04882812 587.91210938 C467.1340212 584.00489664 463.10944265 580.2897251 458.92211914 576.67700195 C455.93618054 574.07184354 453.06966791 571.34367311 450.1875 568.625 C445.21335106 563.97037105 440.13132598 559.54179697 434.80859375 555.28515625 C432.80528245 553.65520199 430.84911086 552.01125139 428.91015625 550.30859375 C419.02505352 541.63049554 408.60074381 533.78009624 398 526 C397.2363916 525.43635742 396.4727832 524.87271484 395.68603516 524.29199219 C358.2039764 496.65461874 318.07147236 473.62617408 276.25 453.25 C275.62834961 452.94547913 275.00669922 452.64095825 274.36621094 452.32720947 C257.5232426 444.09260906 240.17578962 437.13142672 222.625 430.5625 C221.76414795 430.23950928 220.9032959 429.91651855 220.01635742 429.58374023 C205.56154934 424.17533382 191.04015771 419.28238082 176.22412109 414.94677734 C173.07653025 414.02247345 169.93820666 413.07145307 166.80078125 412.11328125 C132.30006681 401.66259027 96.68283669 395.80714164 61.19140625 389.8046875 C59.75944412 389.55952896 59.75944412 389.55952896 58.29855347 389.30941772 C22.20218553 383.27525061 -16.03634156 382.48508132 -47.39013672 403.83984375 C-57.52540593 411.14387762 -64.76246061 421.96248466 -67.5625 434.16015625 C-69.33307363 445.65307615 -68.14623565 457.56633662 -61.3125 467.3125 C-60.24462914 468.57332772 -59.13847975 469.80254495 -58 471 C-57.38640625 471.65355469 -56.7728125 472.30710937 -56.140625 472.98046875 C-34.96638652 493.55768923 -1.74586011 496.56429557 26.1875 497.5625 C27.33025391 497.60568359 28.47300781 497.64886719 29.65039062 497.69335938 C32.43350811 497.79816296 35.21669465 497.90033299 38 498 C39.57377201 510.13158017 40.63175097 522.25882123 41.43261719 534.46484375 C41.62435035 537.36517277 41.82743236 540.26456066 42.03125 543.1640625 C42.84450062 555.12850829 43.17246539 567.00929995 43 579 C38.05057277 577.41268369 33.22452278 575.79489035 28.53125 573.5390625 C27.5606665 573.0742749 26.59008301 572.6094873 25.59008789 572.13061523 C24.57035889 571.63376221 23.55062988 571.13690918 22.5 570.625 C21.41775146 570.10043213 20.33550293 569.57586426 19.22045898 569.03540039 C1.00975412 560.15427885 -16.97230852 551.0097802 -34 540 C-35.14637939 539.25919189 -35.14637939 539.25919189 -36.31591797 538.50341797 C-54.39511025 526.75511216 -71.34918897 513.861203 -87 499 C-87.80123291 498.24178955 -87.80123291 498.24178955 -88.61865234 497.46826172 C-117.84793092 469.61141287 -140.04387361 431.83334507 -141.203125 390.63671875 C-141.37276294 377.77016687 -140.65028287 365.59282702 -138 353 C-137.76651855 351.83452637 -137.76651855 351.83452637 -137.52832031 350.64550781 C-133.65555 331.74546107 -126.49904987 313.35120077 -116.984375 296.57421875 C-115.73934562 294.09624361 -115.73934562 294.09624361 -116.62109375 291.875 C-128.46996904 275.7632149 -150.47542816 264.39861661 -169.99609375 261.31640625 C-187.07304408 259.51766376 -204.06932157 261.93712968 -217.875 272.8125 C-224.95076893 279.43956163 -229.63802353 287.86650977 -230.2109375 297.57421875 C-230.37229862 304.39401891 -230.37229862 304.39401891 -229 311 C-228.47680176 310.7733667 -227.95360352 310.5467334 -227.41455078 310.31323242 C-192.79302346 295.37151056 -192.79302346 295.37151056 -176.75 301.5 C-170.11793418 305.20615443 -166.83007163 311.36489299 -164.59765625 318.38793945 C-163.47145303 323.31001801 -163.60564067 328.224809 -163.6875 333.25 C-163.7033313 334.96364746 -163.7033313 334.96364746 -163.71948242 336.71191406 C-163.88117179 347.22099112 -164.71635779 357.57436887 -166 368 C-166.10183594 368.8647998 -166.20367188 369.72959961 -166.30859375 370.62060547 C-170.97914927 409.83741498 -179.55906224 449.82380282 -202 483 C-202.66 483.99 -203.32 484.98 -204 486 C-204.66 486 -205.32 486 -206 486 C-206.20625 484.865625 -206.4125 483.73125 -206.625 482.5625 C-207.96287615 477.25777429 -210.72584787 473.31731223 -214 469 C-214.49242187 468.34128906 -214.98484375 467.68257812 -215.4921875 467.00390625 C-231.03390272 447.78939763 -257.33494413 435.99479173 -278.75 424.875 C-302.83444845 412.3578795 -330.93321754 397.63209892 -340 370 C-344.42688376 353.34648489 -340.2287324 335.63635189 -332 321 C-338.18125918 316.87916055 -347.69101454 318.22219932 -354.77539062 319.50097656 C-361.60996418 321.00812349 -368.31285359 322.94372064 -375 325 C-375.77375977 325.23493164 -376.54751953 325.46986328 -377.34472656 325.71191406 C-386.00430681 328.39775227 -394.10258905 331.91119262 -402.25 335.875 C-430.27016314 349.48830418 -460.21960746 359.22395846 -491 349.00390625 C-505.86816674 343.40898413 -517.21591877 333.45401688 -526.4375 320.75 C-526.87537842 320.14712158 -527.31325684 319.54424316 -527.7644043 318.9230957 C-529.79512244 316.03581299 -531.51714469 313.54679174 -532 310 C-531.06542969 310.44730469 -530.13085938 310.89460938 -529.16796875 311.35546875 C-502.46560794 323.80575513 -475.47038731 325.87680728 -447.5 315.8125 C-439.28965825 312.72107953 -431.45147519 309.0207664 -423.71044922 304.90380859 C-422.20490647 304.10827345 -420.68360766 303.34270919 -419.16015625 302.58203125 C-403.00416514 294.29753054 -387.67644368 282.25427201 -374.4375 269.875 C-357.43173469 254.20983516 -335.89216522 243.88788143 -312.484375 243.8671875 C-311.78789856 243.86623077 -311.09142212 243.86527405 -310.37384033 243.86428833 C-308.90824289 243.86361203 -307.44264236 243.86542765 -305.97705078 243.86962891 C-303.76978577 243.87495228 -301.56272726 243.86968196 -299.35546875 243.86328125 C-291.52529086 243.85997626 -283.78598858 244.08166336 -276 245 C-301.39865068 233.35895177 -333.3332214 233.29342602 -359.31640625 242.94140625 C-366.36439132 245.65289396 -373.28940986 248.52564607 -380 252 C-378.22865576 233.2680347 -370.55133534 215.05899187 -363 198 C-362.64180176 197.18192871 -362.28360352 196.36385742 -361.91455078 195.52099609 C-343.57467202 153.99816761 -311.78056146 113.05755073 -275.796875 85.17578125 C-273.57158243 83.44465281 -271.41486659 81.67781521 -269.265625 79.85546875 C-258.63456358 70.86683951 -247.54779426 62.76908327 -236 55 C-235.19191895 54.4548877 -234.38383789 53.90977539 -233.55126953 53.34814453 C-187.64738713 22.54507569 -141.17268399 5.86381081 -86 0 C-85.06349609 -0.10296387 -84.12699219 -0.20592773 -83.16210938 -0.31201172 C-55.82779752 -3.19770542 -27.27765142 -3.67317421 0 0 Z " fill="#FEFEFE" transform="translate(898,626)"/>
</svg>
